<?xml version="1.0" encoding="UTF-8"?>
<svg width="118" height="143" viewBox="0 0 118 143" xmlns="http://www.w3.org/2000/svg">
    <path id="Path" fill="#f5f3c2" fill-rule="evenodd" stroke="none" d="M 19.8521 111.570999 C 14.9909 103.761002 9.08889 97.227097 2.14617 92.628197 C -0.129986 91.120499 -0.706675 87.811699 0.95396 85.6446 C 13.8489 68.816597 33.527302 26.658005 44.382401 2.386963 C 46.161098 -1.589935 52.2575 -0.299103 52.2575 4.057434 L 52.2575 66.494202 C 46.549198 69.023804 42.5672 74.739403 42.5672 81.385002 C 42.5672 83.593498 43.006901 85.699303 43.803699 87.619598 L 19.8521 111.570999 Z M 25.715 122.679001 C 28.0868 127.989998 30.080799 133.658005 31.697001 139.539993 C 32.1833 141.309998 33.777302 142.561996 35.612701 142.561996 L 58.846802 142.561996 L 82.080803 142.561996 C 83.916298 142.561996 85.510201 141.309998 85.996597 139.539993 C 87.612701 133.658005 89.606697 127.989998 91.978401 122.679001 L 79.712502 110.413002 L 69.452301 120.674004 C 69.614304 121.418999 69.6996 122.194 69.6996 122.987999 C 69.6996 128.981995 64.8405 133.841003 58.8466 133.841003 C 52.852699 133.841003 47.993698 128.981995 47.993698 122.987999 C 47.993698 116.994003 52.852699 112.135002 58.8466 112.135002 C 59.526901 112.135002 60.192501 112.197998 60.838001 112.317001 L 71.227203 101.928001 L 65.531898 96.232803 C 63.492298 97.152603 61.229198 97.664497 58.8466 97.664497 C 56.463902 97.664497 54.200699 97.152603 52.161098 96.232697 L 25.715 122.679001 Z M 97.841202 111.570999 C 102.702003 103.761002 108.605003 97.227203 115.546997 92.628197 C 117.823997 91.120499 118.400002 87.811699 116.739998 85.6446 C 103.845001 68.816597 84.166298 26.658005 73.311096 2.386963 C 71.532501 -1.589935 65.436096 -0.299103 65.436096 4.057434 L 65.436096 66.4944 C 71.144096 69.024101 75.125999 74.739601 75.125999 81.385002 C 75.125999 83.593597 74.686203 85.699402 73.889397 87.619797 L 83.9552 97.685501 L 97.841202 111.570999 Z"/>
</svg>
